<?xml version="1.0" encoding="UTF-8" standalone="no"?>
<!-- Created with Inkscape (http://www.inkscape.org/) -->

<svg
   xmlns:dc="http://purl.org/dc/elements/1.1/"
   xmlns:cc="http://creativecommons.org/ns#"
   xmlns:rdf="http://www.w3.org/1999/02/22-rdf-syntax-ns#"
   xmlns:svg="http://www.w3.org/2000/svg"
   xmlns="http://www.w3.org/2000/svg"
   xmlns:sodipodi="http://sodipodi.sourceforge.net/DTD/sodipodi-0.dtd"
   xmlns:inkscape="http://www.inkscape.org/namespaces/inkscape"
   width="76.70076"
   height="22.59074"
   viewBox="0 0 20.293743 5.9771335"
   version="1.1"
   id="svg6314"
   inkscape:version="0.92.0 r15299"
   sodipodi:docname="spie.svg">
  <defs
     id="defs6308">
    <clipPath
       id="clipPath5999"
       clipPathUnits="userSpaceOnUse">
      <path
         inkscape:connector-curvature="0"
         id="path5997"
         d="M 0,0 H 612 V 792 H 0 Z" />
    </clipPath>
    <clipPath
       id="clipPath5983"
       clipPathUnits="userSpaceOnUse">
      <path
         inkscape:connector-curvature="0"
         id="path5981"
         d="M 0,0 H 612 V 792 H 0 Z" />
    </clipPath>
  </defs>
  <sodipodi:namedview
     id="base"
     pagecolor="#ffffff"
     bordercolor="#666666"
     borderopacity="1.0"
     inkscape:pageopacity="0.0"
     inkscape:pageshadow="2"
     inkscape:zoom="11.849281"
     inkscape:cx="37.850582"
     inkscape:cy="10.795566"
     inkscape:document-units="mm"
     inkscape:current-layer="layer1"
     showgrid="false"
     fit-margin-top="0"
     fit-margin-left="0"
     fit-margin-right="0"
     fit-margin-bottom="0"
     units="px"
     inkscape:window-width="1280"
     inkscape:window-height="744"
     inkscape:window-x="-4"
     inkscape:window-y="-4"
     inkscape:window-maximized="1" />
  <metadata
     id="metadata6311">
    <rdf:RDF>
      <cc:Work
         rdf:about="">
        <dc:format>image/svg+xml</dc:format>
        <dc:type
           rdf:resource="http://purl.org/dc/dcmitype/StillImage" />
        <dc:title></dc:title>
      </cc:Work>
    </rdf:RDF>
  </metadata>
  <g
     inkscape:label="Layer 1"
     inkscape:groupmode="layer"
     id="layer1"
     transform="translate(-101.11042,-185.02202)">
    <g
       id="g6377"
       transform="translate(0.13229136,-0.13228822)">
      <path
         inkscape:connector-curvature="0"
         id="path5987"
         style="fill:#ed1c24;fill-opacity:1;fill-rule:nonzero;stroke:none;stroke-width:0.35277778"
         d="m 121.13958,190.06253 c 0,-0.50976 -0.41451,-0.92498 -0.92463,-0.92498 -0.52211,0 -0.93733,0.41522 -0.93733,0.92498 0,0.52176 0.41522,0.93662 0.93733,0.93662 0.51012,0 0.92463,-0.41486 0.92463,-0.93662" />
      <path
         inkscape:connector-curvature="0"
         id="path5991"
         style="fill:#231f20;fill-opacity:1;fill-rule:nonzero;stroke:none;stroke-width:0.35277778"
         d="m 114.02015,190.83187 h 4.42383 v -1.28446 h -2.92911 v -0.86537 h 2.6169 v -1.19098 h -2.6169 v -0.83467 h 2.89031 v -1.2767 h -4.38503 z" />
      <path
         inkscape:connector-curvature="0"
         id="path6003"
         style="fill:#231f20;fill-opacity:1;fill-rule:nonzero;stroke:none;stroke-width:0.35277778"
         d="m 103.66488,190.92536 c 1.32433,0 2.20416,-0.66146 2.20416,-1.77553 v -0.0155 c 0,-1.02059 -0.77859,-1.42558 -2.0246,-1.69863 -0.76411,-0.17109 -0.95108,-0.28046 -0.95108,-0.52987 v -0.0155 c 0,-0.20285 0.17921,-0.35066 0.54539,-0.35066 0.48366,0 1.02905,0.17921 1.52753,0.53763 l 0.75494,-1.06715 c -0.59196,-0.47484 -1.31621,-0.72355 -2.24331,-0.72355 -1.30881,0 -2.11067,0.73131 -2.11067,1.74378 v 0.0159 c 0,1.11442 0.89535,1.44145 2.05634,1.70673 0.74789,0.17886 0.92745,0.29599 0.92745,0.52952 v 0.0155 c 0,0.23389 -0.21837,0.37394 -0.63182,0.37394 -0.63077,0 -1.22308,-0.22578 -1.76777,-0.6544 l -0.84102,1.00506 c 0.67733,0.59902 1.58855,0.90276 2.55446,0.90276" />
      <path
         inkscape:connector-curvature="0"
         id="path6007"
         style="fill:#231f20;fill-opacity:1;fill-rule:nonzero;stroke:none;stroke-width:0.35277778"
         d="m 107.93039,188.09058 v -1.4418 h 0.7172 c 0.53798,0 0.87312,0.2413 0.87312,0.70943 v 0.0155 c 0,0.42862 -0.33514,0.71684 -0.86536,0.71684 z m -1.50989,2.74144 h 1.50989 v -1.55858 h 0.756 c 1.34832,0 2.33645,-0.67698 2.33645,-1.96991 v -0.0155 c 0,-1.19944 -0.88688,-1.90817 -2.25848,-1.90817 h -2.34386 z" />
      <path
         d="m 111.56097,190.83166 h 1.5099 v -5.45183 h -1.5099 z"
         style="fill:#231f20;fill-opacity:1;fill-rule:nonzero;stroke:none;stroke-width:0.35277778"
         id="path6009"
         inkscape:connector-curvature="0" />
    </g>
  </g>
</svg>
